<?xml version="1.0" encoding="UTF-8" standalone="no"?>
<!DOCTYPE svg PUBLIC "-//W3C//DTD SVG 1.1//EN"
 "http://www.w3.org/Graphics/SVG/1.1/DTD/svg11.dtd">
<!-- Generated by graphviz version 2.42.4 (0)
 -->
<!-- Title: G Pages: 1 -->
<svg width="568pt" height="309pt"
 viewBox="0.00 0.00 568.30 308.80" xmlns="http://www.w3.org/2000/svg" xmlns:xlink="http://www.w3.org/1999/xlink">
<g id="graph0" class="graph" transform="scale(1 1) rotate(0) translate(14.4 294.4)">
<title>G</title>
<polygon fill="white" stroke="transparent" points="-14.4,14.4 -14.4,-294.4 553.9,-294.4 553.9,14.4 -14.4,14.4"/>
<!-- app -->
<g id="node1" class="node">
<title>app</title>
<path fill="#d5e8d4" stroke="#315b7d" d="M231,-280C231,-280 12,-280 12,-280 6,-280 0,-274 0,-268 0,-268 0,-256 0,-256 0,-250 6,-244 12,-244 12,-244 231,-244 231,-244 237,-244 243,-250 243,-256 243,-256 243,-268 243,-268 243,-274 237,-280 231,-280"/>
<text text-anchor="middle" x="121.5" y="-265" font-family="Noto Sans CJK SC" font-size="10.00">应用与评测价值层</text>
<text text-anchor="middle" x="121.5" y="-254" font-family="Noto Sans CJK SC" font-size="10.00">互联互通五乙｜EMR六级｜智慧服务｜运营｜科研AI</text>
</g>
<!-- service -->
<g id="node2" class="node">
<title>service</title>
<path fill="#fff2cc" stroke="#315b7d" d="M341,-219C341,-219 68,-219 68,-219 62,-219 56,-213 56,-207 56,-207 56,-195 56,-195 56,-189 62,-183 68,-183 68,-183 341,-183 341,-183 347,-183 353,-189 353,-195 353,-195 353,-207 353,-207 353,-213 347,-219 341,-219"/>
<text text-anchor="middle" x="204.5" y="-204" font-family="Noto Sans CJK SC" font-size="10.00">数据服务与互操作层</text>
<text text-anchor="middle" x="204.5" y="-193" font-family="Noto Sans CJK SC" font-size="10.00">API网关｜FHIR/共享文档｜事件总线｜指标/数据产品｜外部协同</text>
</g>
<!-- app&#45;&gt;service -->
<g id="edge1" class="edge">
<title>app&#45;&gt;service</title>
<path fill="none" stroke="#567a96" stroke-width="1.1" d="M145.51,-243.93C154.63,-237.45 165.12,-229.99 174.71,-223.17"/>
<polygon fill="#567a96" stroke="#567a96" stroke-width="1.1" points="176.26,-225.08 180.55,-219.03 173.42,-221.09 176.26,-225.08"/>
</g>
<!-- gov -->
<g id="node3" class="node">
<title>gov</title>
<path fill="#fce4d6" stroke="#315b7d" d="M379,-158C379,-158 120,-158 120,-158 114,-158 108,-152 108,-146 108,-146 108,-134 108,-134 108,-128 114,-122 120,-122 120,-122 379,-122 379,-122 385,-122 391,-128 391,-134 391,-134 391,-146 391,-146 391,-152 385,-158 379,-158"/>
<text text-anchor="middle" x="249.5" y="-143" font-family="Noto Sans CJK SC" font-size="10.00">一体化治理控制面</text>
<text text-anchor="middle" x="249.5" y="-132" font-family="Noto Sans CJK SC" font-size="10.00">标准/术语｜MDM｜元数据/血缘｜质量｜分类分级｜证据中心</text>
</g>
<!-- service&#45;&gt;gov -->
<g id="edge2" class="edge">
<title>service&#45;&gt;gov</title>
<path fill="none" stroke="#567a96" stroke-width="1.1" d="M217.52,-182.93C222.05,-176.99 227.21,-170.23 232.04,-163.89"/>
<polygon fill="#567a96" stroke="#567a96" stroke-width="1.1" points="234.06,-165.28 236.36,-158.23 230.16,-162.31 234.06,-165.28"/>
</g>
<!-- data -->
<g id="node4" class="node">
<title>data</title>
<path fill="#e4dfec" stroke="#315b7d" d="M464,-97C464,-97 205,-97 205,-97 199,-97 193,-91 193,-85 193,-85 193,-73 193,-73 193,-67 199,-61 205,-61 205,-61 464,-61 464,-61 470,-61 476,-67 476,-73 476,-73 476,-85 476,-85 476,-91 470,-97 464,-97"/>
<text text-anchor="middle" x="334.5" y="-82" font-family="Noto Sans CJK SC" font-size="10.00">数据资产与计算层</text>
<text text-anchor="middle" x="334.5" y="-71" font-family="Noto Sans CJK SC" font-size="10.00">ODS/实时流｜CDR｜湖仓｜科研沙箱｜知识库/Feature Store</text>
</g>
<!-- gov&#45;&gt;data -->
<g id="edge3" class="edge">
<title>gov&#45;&gt;data</title>
<path fill="none" stroke="#567a96" stroke-width="1.1" d="M274.09,-121.93C283.42,-115.45 294.18,-107.99 304,-101.17"/>
<polygon fill="#567a96" stroke="#567a96" stroke-width="1.1" points="305.62,-103.03 309.97,-97.03 302.82,-99.01 305.62,-103.03"/>
</g>
<!-- source -->
<g id="node5" class="node">
<title>source</title>
<path fill="#eaf2f8" stroke="#315b7d" d="M495.5,-36C495.5,-36 173.5,-36 173.5,-36 167.5,-36 161.5,-30 161.5,-24 161.5,-24 161.5,-12 161.5,-12 161.5,-6 167.5,0 173.5,0 173.5,0 495.5,0 495.5,0 501.5,0 507.5,-6 507.5,-12 507.5,-12 507.5,-24 507.5,-24 507.5,-30 501.5,-36 495.5,-36"/>
<text text-anchor="middle" x="334.5" y="-21" font-family="Noto Sans CJK SC" font-size="10.00">业务与设备源系统</text>
<text text-anchor="middle" x="334.5" y="-10" font-family="Noto Sans CJK SC" font-size="10.00">HIS｜EMR｜LIS｜PACS/RIS｜手麻｜输血｜护理｜病案｜HRP｜互联网医院</text>
</g>
<!-- data&#45;&gt;source -->
<g id="edge4" class="edge">
<title>data&#45;&gt;source</title>
<path fill="none" stroke="#567a96" stroke-width="1.1" d="M334.5,-60.93C334.5,-55.48 334.5,-49.33 334.5,-43.45"/>
<polygon fill="#567a96" stroke="#567a96" stroke-width="1.1" points="336.95,-43.23 334.5,-36.23 332.05,-43.23 336.95,-43.23"/>
</g>
<!-- ops -->
<g id="node6" class="node">
<title>ops</title>
<path fill="#d9ead3" stroke="#315b7d" d="M527.5,-280C527.5,-280 273.5,-280 273.5,-280 267.5,-280 261.5,-274 261.5,-268 261.5,-268 261.5,-256 261.5,-256 261.5,-250 267.5,-244 273.5,-244 273.5,-244 527.5,-244 527.5,-244 533.5,-244 539.5,-250 539.5,-256 539.5,-256 539.5,-268 539.5,-268 539.5,-274 533.5,-280 527.5,-280"/>
<text text-anchor="middle" x="400.5" y="-265" font-family="Noto Sans CJK SC" font-size="10.00">安全与平台工程底座</text>
<text text-anchor="middle" x="400.5" y="-254" font-family="Noto Sans CJK SC" font-size="10.00">IAM｜KMS｜审计｜可观测｜容灾｜DevSecOps｜配置/版本</text>
</g>
<!-- ops&#45;&gt;service -->
<g id="edge5" class="edge">
<title>ops&#45;&gt;service</title>
<path fill="none" stroke="#567a96" stroke-width="1.1" d="M337.01,-241.89C314.85,-235.22 289.99,-227.73 267.84,-221.07"/>
<polygon fill="#567a96" stroke="#567a96" stroke-width="1.1" points="336.4,-244.26 343.81,-243.93 337.81,-239.57 336.4,-244.26"/>
<polygon fill="#567a96" stroke="#567a96" stroke-width="1.1" points="268.47,-218.7 261.06,-219.03 267.06,-223.39 268.47,-218.7"/>
</g>
<!-- ops&#45;&gt;gov -->
<g id="edge6" class="edge">
<title>ops&#45;&gt;gov</title>
<path fill="none" stroke="#567a96" stroke-width="1.1" d="M393.66,-236.84C387.69,-219.73 377.45,-197.36 361.5,-183 351.31,-173.83 338.94,-166.6 326.17,-160.91"/>
<polygon fill="#567a96" stroke="#567a96" stroke-width="1.1" points="391.44,-237.93 395.96,-243.81 396.09,-236.4 391.44,-237.93"/>
<polygon fill="#567a96" stroke="#567a96" stroke-width="1.1" points="326.88,-158.55 319.48,-158.08 324.97,-163.06 326.88,-158.55"/>
</g>
<!-- ops&#45;&gt;data -->
<g id="edge7" class="edge">
<title>ops&#45;&gt;data</title>
<path fill="none" stroke="#567a96" stroke-width="1.1" d="M406.86,-236.94C413.17,-207.78 419.31,-158.08 399.5,-122 394.97,-113.74 388.04,-106.86 380.37,-101.21"/>
<polygon fill="#567a96" stroke="#567a96" stroke-width="1.1" points="404.44,-236.52 405.27,-243.89 409.22,-237.61 404.44,-236.52"/>
<polygon fill="#567a96" stroke="#567a96" stroke-width="1.1" points="381.55,-99.05 374.39,-97.13 378.79,-103.1 381.55,-99.05"/>
</g>
</g>
</svg>
